<svg xmlns="http://www.w3.org/2000/svg" width="139" height="140" viewBox="0 0 39 40" fill="white">
    <path opacity="0.4" d="M30.1836 3.81938C30.3448 3.88376 31.7073 4.50346 31.3848 4.12521C31.0543 3.7228 30.6512 3.38479 30.1997 3.12725C7.44054 -9.88639 -10.3927 21.0341 6.97294 35.0779C7.63403 35.6171 8.09357 35.9953 8.24675 36.0034C8.45636 36.0195 12.3261 38.788 9.4883 34.3133C-1.2826 17.3803 11.5038 -5.25073 30.1836 3.81938ZM38.2214 17.2676V17.2596C38.0038 14.7727 37.3104 12.3503 36.1737 10.121C28.813 1.28425 0.507178 10.3866 10.1897 33.2268C10.488 33.927 10.883 34.3214 11.0765 34.1926C11.27 34.0638 12.1568 33.9833 12.0601 33.2993C9.4883 15.4246 31.9169 11.1592 38.2214 17.2676ZM15.3978 35.7539C15.551 36.2529 15.5429 36.4541 15.6961 36.5265C15.7686 36.5587 17.8083 37.1704 17.8648 36.6553C18.5097 31.1504 33.5535 25.4444 34.5693 30.1686C35.9076 28.1646 37.3024 26.1607 37.8425 23.6899C37.8587 23.3439 37.9715 23.2312 37.9715 23.2312C36.6332 18.9255 11.6006 23.2231 15.3978 35.7539Z"/>
    <path d="M10.3494 2.21508C10.9009 1.70696 11.4364 1.22303 11.2366 1.19077C11.0847 1.16658 10.5412 1.42467 9.79794 1.85214C-4.1087 9.83687 -0.831849 34.6621 17.2788 39.1465V39.1626C17.8062 39.211 18.3417 39.2433 18.8692 39.2433C20.9872 39.2433 23.0972 38.8884 25.0952 38.1867C26.8536 37.5253 27.8446 37.0172 29.523 35.9687C29.7068 35.8477 29.8906 35.7187 30.0665 35.5896C14.2736 40.5579 -3.92488 15.9343 10.3494 2.21508ZM12.7071 4.28788C12.835 3.60232 12.9149 3.32004 12.7471 3.15873C12.5793 2.99742 12.2036 3.40875 11.7481 4.02979C2.81265 16.4263 22.3299 35.259 35.0297 30.3794C36.4044 28.2663 37.3714 25.9031 37.875 23.427V23.419C30.9057 28.8389 10.5093 16.144 12.7071 4.28788ZM36.0927 10.1998C34.5422 14.8374 20.124 6.85267 17.9421 2.44897C17.7183 1.97312 17.5185 1.8602 17.4386 1.89246C17.2788 1.94085 17.1669 2.11829 17.063 2.63448C15.7202 9.15131 30.0665 20.951 38.2186 17.9184C38.2266 17.7329 38.2186 17.5474 38.1787 17.3619C37.9389 14.8616 37.2276 12.4339 36.0927 10.1998Z"/>
</svg>
